<svg width="235" height="66" viewBox="0 0 235 66" fill="none" xmlns="http://www.w3.org/2000/svg">
<g clip-path="url(#clip0_1_78)">
<path d="M30.63 26.3504C30.63 25.0332 31.6822 23.9497 33.009 23.9497C34.3138 23.9497 35.3631 25.0332 35.3631 26.3504C35.3631 27.6704 34.3109 28.7429 33.009 28.7429C31.682 28.7403 30.63 27.6705 30.63 26.3504ZM23.2433 5.93726H23.2241V9.2208H26.2375V6.03623C27.2731 5.51103 27.9846 4.43842 27.9846 3.19272C27.9763 1.42445 26.5644 0 24.8255 0C23.073 0 21.6582 1.42445 21.6582 3.18996C21.6582 4.37244 22.2984 5.38722 23.2433 5.93726ZM16.6614 28.7403C17.9718 28.7403 19.0376 27.6678 19.0376 26.3478C19.0376 25.0306 17.9718 23.9471 16.6614 23.9471C15.3484 23.9471 14.2825 25.0306 14.2825 26.3478C14.2826 27.6705 15.3457 28.7403 16.6614 28.7403ZM24.8255 66C28.3939 66 31.4265 63.69 32.5886 60.5055H17.068C18.2163 63.69 21.2545 66 24.8255 66ZM0.0943604 56.2677C0.0943604 54.9944 0.827867 53.8999 1.8909 53.3939V39.8145C1.8909 37.1278 3.95658 34.9414 6.56356 34.7573V28.1985C6.56356 28.1985 7.20083 16.2333 17.0735 12.5014C20.0018 11.4015 22.6747 10.9559 24.9986 10.8679C27.3225 10.9586 30.0037 11.4014 32.9236 12.5042C42.7963 16.2223 43.4282 28.2011 43.4282 28.2011V34.7901C46.0461 34.9497 48.1064 37.1359 48.1064 39.8226V53.3939C49.164 53.8999 49.9057 54.9971 49.9057 56.2732C49.9057 58.0332 48.4882 59.4522 46.7466 59.4522C44.9996 59.4522 43.5848 58.0306 43.5848 56.2732C43.5848 54.9971 44.3156 53.9055 45.3731 53.3939V44.3355C44.7798 44.6242 44.126 44.814 43.4337 44.8662V48.0149C43.4556 48.2761 43.4777 48.5291 43.4777 48.7849C43.4777 49.0654 43.4558 49.3239 43.4337 49.6154V49.6924H43.4227C43.0106 54.9284 38.9203 59.158 33.7615 59.7327L33.767 59.7959H24.9986H16.2191L16.2219 59.7327C11.063 59.1524 6.99194 54.9505 6.56342 49.6924H6.55791V49.6154C6.53323 49.3267 6.51944 49.0654 6.51944 48.7849C6.51944 48.5319 6.54136 48.2817 6.55791 48.0149V44.8662C5.86563 44.8112 5.20092 44.6242 4.61577 44.3355V53.3939C5.67604 53.8999 6.41782 54.9971 6.41782 56.2732C6.41782 58.0332 4.99769 59.4522 3.25051 59.4522C1.50622 59.4522 0.0943604 58.0277 0.0943604 56.2677ZM30.2647 39.567C30.2647 38.7146 29.5806 38.0215 28.7455 38.0215C27.9021 38.0215 27.2347 38.7146 27.2347 39.567C27.2347 40.4113 27.9021 41.1015 28.7455 41.1015C29.5862 41.0987 30.2647 40.4084 30.2647 39.567ZM34.017 39.567C34.017 38.7146 33.3275 38.0215 32.4923 38.0215C31.66 38.0215 30.9787 38.7146 30.9787 39.567C30.9787 40.4113 31.6627 41.1015 32.4923 41.1015C33.3248 41.0987 34.017 40.4084 34.017 39.567ZM37.7831 39.567C37.7831 38.7146 37.0963 38.0215 36.2503 38.0215C35.4124 38.0215 34.7231 38.7146 34.7231 39.567C34.7231 40.4113 35.4126 41.1015 36.2503 41.1015C37.0965 41.0987 37.7831 40.4084 37.7831 39.567ZM12.1783 26.7877C12.1783 30.866 15.3401 31.1299 15.3401 31.1299C16.4361 31.4847 18.7711 31.317 19.8177 31.1299C20.7874 30.9704 24.3448 30.6624 24.9051 30.6129C24.9298 30.6129 24.9655 30.6156 24.9931 30.6156C25.0233 30.6156 25.059 30.6129 25.0728 30.6129C25.6469 30.6597 29.1932 30.9704 30.1601 31.1299C31.2232 31.317 33.55 31.4847 34.646 31.1299C34.646 31.1299 37.805 30.8769 37.805 26.7877C37.805 26.7877 37.805 22.2612 34.646 19.5057C31.5775 16.8492 26.9544 16.2661 25.1633 16.2387C25.1331 16.2387 25.1002 16.2387 25.07 16.2387C25.0481 16.2387 25.0151 16.2387 24.9903 16.2387C24.9629 16.2387 24.9299 16.2387 24.8997 16.2387C24.8695 16.2387 24.8421 16.2387 24.82 16.2387C23.0235 16.2661 18.4003 16.8519 15.3319 19.5057C12.1783 22.2612 12.1783 26.7877 12.1783 26.7877Z" fill="#081287"/>
</g>
<path d="M89.7656 40.5566H93.4277C93.3105 41.9531 92.9199 43.1982 92.2559 44.292C91.5918 45.376 90.6592 46.2305 89.458 46.8555C88.2568 47.4805 86.7969 47.793 85.0781 47.793C83.7598 47.793 82.5732 47.5586 81.5186 47.0898C80.4639 46.6113 79.5605 45.9375 78.8086 45.0684C78.0566 44.1895 77.4805 43.1299 77.0801 41.8896C76.6895 40.6494 76.4941 39.2627 76.4941 37.7295V35.957C76.4941 34.4238 76.6943 33.0371 77.0947 31.7969C77.5049 30.5566 78.0908 29.4971 78.8525 28.6182C79.6143 27.7295 80.5273 27.0508 81.5918 26.582C82.666 26.1133 83.8721 25.8789 85.21 25.8789C86.9092 25.8789 88.3447 26.1914 89.5166 26.8164C90.6885 27.4414 91.5967 28.3057 92.2412 29.4092C92.8955 30.5127 93.2959 31.7773 93.4424 33.2031H89.7803C89.6826 32.2852 89.4678 31.499 89.1357 30.8447C88.8135 30.1904 88.335 29.6924 87.7002 29.3506C87.0654 28.999 86.2354 28.8232 85.21 28.8232C84.3701 28.8232 83.6377 28.9795 83.0127 29.292C82.3877 29.6045 81.8652 30.0635 81.4453 30.6689C81.0254 31.2744 80.708 32.0215 80.4932 32.9102C80.2881 33.7891 80.1855 34.7949 80.1855 35.9277V37.7295C80.1855 38.8037 80.2783 39.7803 80.4639 40.6592C80.6592 41.5283 80.9521 42.2754 81.3428 42.9004C81.7432 43.5254 82.251 44.0088 82.8662 44.3506C83.4814 44.6924 84.2188 44.8633 85.0781 44.8633C86.123 44.8633 86.9678 44.6973 87.6123 44.3652C88.2666 44.0332 88.7598 43.5498 89.0918 42.915C89.4336 42.2705 89.6582 41.4844 89.7656 40.5566ZM116.014 36.25V37.4219C116.014 39.0332 115.804 40.4785 115.385 41.7578C114.965 43.0371 114.364 44.126 113.583 45.0244C112.811 45.9229 111.884 46.6113 110.8 47.0898C109.716 47.5586 108.514 47.793 107.196 47.793C105.887 47.793 104.691 47.5586 103.607 47.0898C102.533 46.6113 101.6 45.9229 100.809 45.0244C100.018 44.126 99.4031 43.0371 98.9636 41.7578C98.5339 40.4785 98.3191 39.0332 98.3191 37.4219V36.25C98.3191 34.6387 98.5339 33.1982 98.9636 31.9287C99.3933 30.6494 99.9988 29.5605 100.78 28.6621C101.571 27.7539 102.504 27.0654 103.578 26.5967C104.662 26.1182 105.858 25.8789 107.167 25.8789C108.485 25.8789 109.686 26.1182 110.77 26.5967C111.854 27.0654 112.787 27.7539 113.568 28.6621C114.349 29.5605 114.95 30.6494 115.37 31.9287C115.8 33.1982 116.014 34.6387 116.014 36.25ZM112.338 37.4219V36.2207C112.338 35.0293 112.22 33.9795 111.986 33.0713C111.761 32.1533 111.425 31.3867 110.975 30.7715C110.536 30.1465 109.994 29.6777 109.349 29.3652C108.705 29.043 107.977 28.8818 107.167 28.8818C106.356 28.8818 105.634 29.043 104.999 29.3652C104.364 29.6777 103.822 30.1465 103.373 30.7715C102.933 31.3867 102.596 32.1533 102.362 33.0713C102.128 33.9795 102.011 35.0293 102.011 36.2207V37.4219C102.011 38.6133 102.128 39.668 102.362 40.5859C102.596 41.5039 102.938 42.2803 103.387 42.915C103.846 43.54 104.393 44.0137 105.028 44.3359C105.663 44.6484 106.386 44.8047 107.196 44.8047C108.016 44.8047 108.744 44.6484 109.379 44.3359C110.013 44.0137 110.551 43.54 110.99 42.915C111.429 42.2803 111.761 41.5039 111.986 40.5859C112.22 39.668 112.338 38.6133 112.338 37.4219ZM125.857 26.1719V47.5H122.18V26.1719H125.857ZM149.586 26.1719V47.5H145.909L136.344 32.2217V47.5H132.667V26.1719H136.344L145.939 41.4795V26.1719H149.586ZM156.206 26.1719H163.75C165.371 26.1719 166.753 26.416 167.896 26.9043C169.038 27.3926 169.912 28.1152 170.518 29.0723C171.133 30.0195 171.44 31.1914 171.44 32.5879C171.44 33.6523 171.245 34.5898 170.855 35.4004C170.464 36.2109 169.912 36.8945 169.199 37.4512C168.486 37.998 167.637 38.4229 166.65 38.7256L165.537 39.2676H158.755L158.726 36.3525H163.809C164.688 36.3525 165.42 36.1963 166.006 35.8838C166.592 35.5713 167.031 35.1465 167.324 34.6094C167.627 34.0625 167.778 33.4473 167.778 32.7637C167.778 32.0215 167.632 31.377 167.339 30.8301C167.056 30.2734 166.616 29.8486 166.021 29.5557C165.425 29.2529 164.668 29.1016 163.75 29.1016H159.883V47.5H156.206V26.1719ZM168.379 47.5L163.369 37.9199L167.222 37.9053L172.305 47.3096V47.5H168.379ZM189.31 26.1719H192.972V40.4248C192.972 42.0459 192.621 43.4033 191.918 44.4971C191.215 45.5908 190.258 46.416 189.047 46.9727C187.846 47.5195 186.503 47.793 185.018 47.793C183.485 47.793 182.118 47.5195 180.917 46.9727C179.716 46.416 178.768 45.5908 178.075 44.4971C177.391 43.4033 177.05 42.0459 177.05 40.4248V26.1719H180.712V40.4248C180.712 41.4502 180.887 42.2949 181.239 42.959C181.591 43.6133 182.089 44.0967 182.733 44.4092C183.378 44.7217 184.139 44.8779 185.018 44.8779C185.897 44.8779 186.654 44.7217 187.289 44.4092C187.933 44.0967 188.431 43.6133 188.783 42.959C189.135 42.2949 189.31 41.4502 189.31 40.4248V26.1719ZM212.571 44.585V47.5H201.863V44.585H212.571ZM202.888 26.1719V47.5H199.211V26.1719H202.888ZM231.613 44.585V47.5H220.289V44.585H231.613ZM221.329 26.1719V47.5H217.653V26.1719H221.329ZM230.133 35.0781V37.9492H220.289V35.0781H230.133ZM231.539 26.1719V29.1016H220.289V26.1719H231.539Z" fill="white"/>
<defs>
<clipPath id="clip0_1_78">
<rect width="50" height="66" fill="white"/>
</clipPath>
</defs>
</svg>
